<svg xmlns="http://www.w3.org/2000/svg" x="0px" y="0px"
     width="24" height="24"
     viewBox="0 0 50 50"
     style=" fill:#000000;">
    <g id="surface1">
        <path style=" " d="M 10.15625 1.59375 C 9.210938 1.59375 8.367188 1.765625 7.65625 2.09375 C 6.945313 2.421875 6.339844 2.863281 5.84375 3.4375 C 5.347656 4.011719 4.996094 4.707031 4.75 5.5 C 4.503906 6.292969 4.375 7.132813 4.375 8.0625 L 7.09375 8.0625 C 7.109375 7.472656 7.175781 6.917969 7.28125 6.40625 C 7.386719 5.894531 7.535156 5.46875 7.75 5.09375 C 7.964844 4.71875 8.265625 4.402344 8.625 4.1875 C 8.984375 3.972656 9.425781 3.875 9.96875 3.875 C 10.5625 3.875 11.070313 3.988281 11.4375 4.1875 C 11.804688 4.386719 12.074219 4.609375 12.28125 4.90625 C 12.488281 5.203125 12.648438 5.53125 12.71875 5.875 C 12.789063 6.21875 12.8125 6.539063 12.8125 6.84375 C 12.796875 7.5 12.632813 8.089844 12.3125 8.59375 C 11.992188 9.097656 11.589844 9.566406 11.09375 10 C 10.597656 10.433594 10.0625 10.8125 9.46875 11.1875 C 8.875 11.566406 8.292969 11.976563 7.75 12.375 C 6.613281 13.144531 5.71875 14.054688 5.0625 15.09375 C 4.40625 16.132813 4.078125 17.328125 4.0625 18.71875 L 15.53125 18.71875 L 15.53125 16.28125 L 7.34375 16.28125 C 7.457031 15.914063 7.664063 15.546875 7.96875 15.21875 C 8.273438 14.890625 8.625 14.585938 9.03125 14.28125 C 9.4375 13.976563 9.894531 13.679688 10.375 13.375 C 10.855469 13.070313 11.332031 12.742188 11.8125 12.40625 C 12.292969 12.070313 12.738281 11.726563 13.1875 11.34375 C 13.632813 10.957031 14.054688 10.519531 14.40625 10.0625 C 14.757813 9.605469 15.042969 9.109375 15.25 8.5625 C 15.457031 8.019531 15.5625 7.421875 15.5625 6.75 C 15.5625 6.207031 15.457031 5.632813 15.28125 5.03125 C 15.105469 4.429688 14.800781 3.886719 14.375 3.375 C 13.949219 2.863281 13.40625 2.429688 12.71875 2.09375 C 12.03125 1.757813 11.179688 1.59375 10.15625 1.59375 Z M 39.90625 7.96875 C 39.863281 7.976563 39.820313 7.988281 39.78125 8 C 39.316406 8.105469 38.988281 8.523438 39 9 L 39 38.53125 L 31.8125 31.34375 C 31.625 31.144531 31.367188 31.035156 31.09375 31.03125 C 30.6875 31.035156 30.324219 31.28125 30.171875 31.660156 C 30.023438 32.035156 30.113281 32.46875 30.40625 32.75 L 39.28125 41.65625 L 40 42.34375 L 40.71875 41.65625 L 49.59375 32.75 C 49.890625 32.507813 50.027344 32.121094 49.941406 31.746094 C 49.855469 31.375 49.5625 31.082031 49.191406 30.996094 C 48.816406 30.910156 48.429688 31.046875 48.1875 31.34375 L 41 38.53125 L 41 9 C 41.011719 8.710938 40.894531 8.433594 40.6875 8.238281 C 40.476563 8.039063 40.191406 7.941406 39.90625 7.96875 Z M 9.28125 30.71875 C 9.1875 31.230469 9 31.679688 8.6875 32.03125 C 8.375 32.382813 8.003906 32.648438 7.5625 32.875 C 7.121094 33.097656 6.605469 33.277344 6.0625 33.375 C 5.519531 33.472656 4.980469 33.5 4.40625 33.5 L 4.40625 35.65625 L 8.53125 35.65625 L 8.53125 47.53125 L 11.53125 47.53125 L 11.53125 30.71875 Z ">
        </path>
    </g>
</svg>
